<svg width="25" height="24" viewBox="0 0 25 24" fill="none" xmlns="http://www.w3.org/2000/svg">
    <path d="M8.01154 19.3384H6.09149C3.15149 19.1284 1.83154 16.8684 1.83154 14.8584C1.83154 12.8484 3.1515 10.5784 6.0415 10.3784C6.4515 10.3384 6.81149 10.6584 6.84149 11.0784C6.87149 11.4884 6.56154 11.8484 6.14154 11.8784C4.20154 12.0184 3.33154 13.4784 3.33154 14.8684C3.33154 16.2584 4.20154 17.7184 6.14154 17.8584H8.01154C8.42154 17.8584 8.76154 18.1984 8.76154 18.6084C8.76154 19.0184 8.42154 19.3384 8.01154 19.3384Z" fill="url(#paint0_linear_450_10314)"/>
    <path d="M17.2221 19.338C17.2021 19.338 17.1922 19.338 17.1722 19.338C16.7622 19.338 16.3822 18.998 16.3822 18.588C16.3822 18.158 16.7022 17.838 17.1222 17.838C18.3522 17.838 19.4522 17.408 20.3122 16.638C21.8722 15.278 21.9722 13.3181 21.5522 11.9381C21.1322 10.5681 19.9622 8.99805 17.9222 8.74805C17.5922 8.70805 17.3321 8.45805 17.2721 8.12805C16.8721 5.72805 15.5822 4.06805 13.6222 3.46805C11.6022 2.83805 9.24213 3.45805 7.77213 4.99805C6.34213 6.48805 6.01214 8.57805 6.84214 10.8781C6.98214 11.2681 6.78219 11.698 6.39219 11.838C6.00219 11.978 5.57217 11.778 5.43217 11.388C4.42217 8.56805 4.88218 5.86805 6.69217 3.96805C8.54217 2.02805 11.5122 1.25804 14.0622 2.03804C16.4022 2.75804 18.0521 4.68804 18.6521 7.36804C20.6921 7.82804 22.3322 9.37805 22.9822 11.5181C23.6922 13.8481 23.0522 16.2481 21.3022 17.7681C20.1922 18.7681 18.7421 19.338 17.2221 19.338Z" fill="url(#paint1_linear_450_10314)"/>
    <path d="M12.5518 22.2783C10.5418 22.2783 8.66177 21.2083 7.63177 19.4783C7.52177 19.3083 7.41178 19.1083 7.32178 18.8883C6.98178 18.1783 6.80176 17.3683 6.80176 16.5283C6.80176 13.3583 9.38176 10.7783 12.5518 10.7783C15.7218 10.7783 18.3018 13.3583 18.3018 16.5283C18.3018 17.3783 18.1218 18.1783 17.7618 18.9183C17.6818 19.1083 17.5718 19.3083 17.4518 19.4983C16.4418 21.2083 14.5618 22.2783 12.5518 22.2783ZM12.5518 12.2783C10.2118 12.2783 8.30176 14.1883 8.30176 16.5283C8.30176 17.1483 8.43176 17.7283 8.68176 18.2583C8.76176 18.4283 8.83174 18.5683 8.91174 18.6983C9.67174 19.9883 11.0617 20.7783 12.5417 20.7783C14.0217 20.7783 15.4117 19.9883 16.1617 18.7183C16.2517 18.5683 16.3318 18.4283 16.3918 18.2883C16.6618 17.7383 16.7917 17.1583 16.7917 16.5383C16.8017 14.1883 14.8918 12.2783 12.5518 12.2783Z" fill="url(#paint2_linear_450_10314)"/>
    <path d="M11.9812 18.2679C11.7912 18.2679 11.6012 18.1979 11.4512 18.0479L10.4612 17.0579C10.1712 16.7679 10.1712 16.2879 10.4612 15.9979C10.7512 15.7079 11.2311 15.7079 11.5211 15.9979L12.0012 16.4779L13.6012 14.9979C13.9112 14.7179 14.3812 14.7379 14.6612 15.0379C14.9412 15.3379 14.9212 15.8179 14.6212 16.0979L12.4912 18.0679C12.3412 18.1979 12.1612 18.2679 11.9812 18.2679Z" fill="url(#paint3_linear_450_10314)"/>
    <defs>
        <linearGradient id="paint0_linear_450_10314" x1="5.29654" y1="10.375" x2="5.29654" y2="19.3384" gradientUnits="userSpaceOnUse">
            <stop stop-color="#111111"/>
            <stop offset="0.25" stop-color="#050A13"/>
            <stop offset="0.5" stop-color="#080E20"/>
            <stop offset="0.75" stop-color="#0C122E"/>
            <stop offset="1" stop-color="#101B5A"/>
        </linearGradient>
        <linearGradient id="paint1_linear_450_10314" x1="14.0867" y1="1.7373" x2="14.0867" y2="19.338" gradientUnits="userSpaceOnUse">
            <stop stop-color="#111111"/>
            <stop offset="0.25" stop-color="#050A13"/>
            <stop offset="0.5" stop-color="#080E20"/>
            <stop offset="0.75" stop-color="#0C122E"/>
            <stop offset="1" stop-color="#101B5A"/>
        </linearGradient>
        <linearGradient id="paint2_linear_450_10314" x1="12.5518" y1="10.7783" x2="12.5518" y2="22.2783" gradientUnits="userSpaceOnUse">
            <stop stop-color="#111111"/>
            <stop offset="0.25" stop-color="#050A13"/>
            <stop offset="0.5" stop-color="#080E20"/>
            <stop offset="0.75" stop-color="#0C122E"/>
            <stop offset="1" stop-color="#101B5A"/>
        </linearGradient>
        <linearGradient id="paint3_linear_450_10314" x1="12.5515" y1="14.7998" x2="12.5515" y2="18.2679" gradientUnits="userSpaceOnUse">
            <stop stop-color="#111111"/>
            <stop offset="0.25" stop-color="#050A13"/>
            <stop offset="0.5" stop-color="#080E20"/>
            <stop offset="0.75" stop-color="#0C122E"/>
            <stop offset="1" stop-color="#101B5A"/>
        </linearGradient>
    </defs>
</svg>
